<svg xmlns="http://www.w3.org/2000/svg" xmlns:xlink="http://www.w3.org/1999/xlink" width="851" zoomAndPan="magnify" viewBox="0 0 638.25 278.999983" height="372" preserveAspectRatio="xMidYMid meet" version="1.0"><defs><g/><clipPath id="b2a01c9215"><path d="M 107.542969 198.664062 L 187.011719 198.664062 L 187.011719 278.132812 L 107.542969 278.132812 Z M 107.542969 198.664062 " clip-rule="nonzero"/></clipPath><clipPath id="88702fc353"><path d="M 147.277344 198.664062 C 125.332031 198.664062 107.542969 216.453125 107.542969 238.398438 C 107.542969 260.34375 125.332031 278.132812 147.277344 278.132812 C 169.21875 278.132812 187.011719 260.34375 187.011719 238.398438 C 187.011719 216.453125 169.21875 198.664062 147.277344 198.664062 Z M 147.277344 198.664062 " clip-rule="nonzero"/></clipPath><clipPath id="630074d0e5"><path d="M 107.542969 198.664062 L 186.949219 198.664062 L 186.949219 278.070312 L 107.542969 278.070312 Z M 107.542969 198.664062 " clip-rule="nonzero"/></clipPath><clipPath id="c2b1b7fbec"><path d="M 147.273438 198.664062 C 125.332031 198.664062 107.542969 216.453125 107.542969 238.398438 C 107.542969 260.339844 125.332031 278.128906 147.273438 278.128906 C 169.21875 278.128906 187.007812 260.339844 187.007812 238.398438 C 187.007812 216.453125 169.21875 198.664062 147.273438 198.664062 Z M 147.273438 198.664062 " clip-rule="nonzero"/></clipPath><clipPath id="c89a033002"><path d="M 7 220 L 108 220 L 108 251 L 7 251 Z M 7 220 " clip-rule="nonzero"/></clipPath><clipPath id="569c750eba"><path d="M 107.277344 217.710938 L 108.03125 249.914062 L 7.675781 252.265625 L 6.921875 220.0625 Z M 107.277344 217.710938 " clip-rule="nonzero"/></clipPath><clipPath id="f4d057fef9"><path d="M 107.277344 217.710938 L 108.03125 249.914062 L 7.675781 252.265625 L 6.921875 220.0625 Z M 107.277344 217.710938 " clip-rule="nonzero"/></clipPath><clipPath id="fff9bfed82"><path d="M 107.277344 217.710938 L 108.03125 249.914062 L 7.675781 252.265625 L 6.921875 220.0625 Z M 107.277344 217.710938 " clip-rule="nonzero"/></clipPath><clipPath id="677b6416af"><path d="M 80 11 L 151 11 L 151 77 L 80 77 Z M 80 11 " clip-rule="nonzero"/></clipPath><clipPath id="2ed2ee4a1d"><path d="M 74.949219 56.730469 L 105.535156 0.03125 L 162.234375 30.617188 L 131.648438 87.316406 Z M 74.949219 56.730469 " clip-rule="nonzero"/></clipPath><clipPath id="096859564b"><path d="M 105.464844 0.164062 L 74.875 56.863281 L 131.574219 87.453125 L 162.164062 30.75 Z M 105.464844 0.164062 " clip-rule="nonzero"/></clipPath><clipPath id="e78d1cb308"><path d="M 105.464844 0.164062 L 74.875 56.863281 L 131.574219 87.453125 L 162.164062 30.75 Z M 105.464844 0.164062 " clip-rule="nonzero"/></clipPath><clipPath id="a759f76bf1"><path d="M 79.570312 56.378906 L 157.410156 56.378906 L 157.410156 134.21875 L 79.570312 134.21875 Z M 79.570312 56.378906 " clip-rule="nonzero"/></clipPath><clipPath id="ea925ce678"><path d="M 118.488281 56.378906 C 96.996094 56.378906 79.570312 73.804688 79.570312 95.296875 C 79.570312 116.792969 96.996094 134.21875 118.488281 134.21875 C 139.984375 134.21875 157.410156 116.792969 157.410156 95.296875 C 157.410156 73.804688 139.984375 56.378906 118.488281 56.378906 Z M 118.488281 56.378906 " clip-rule="nonzero"/></clipPath><clipPath id="042c90f7a0"><path d="M 79.570312 56.378906 L 157.398438 56.378906 L 157.398438 134.207031 L 79.570312 134.207031 Z M 79.570312 56.378906 " clip-rule="nonzero"/></clipPath><clipPath id="971a35af5c"><path d="M 118.484375 56.378906 C 96.992188 56.378906 79.570312 73.800781 79.570312 95.292969 C 79.570312 116.785156 96.992188 134.207031 118.484375 134.207031 C 139.976562 134.207031 157.398438 116.785156 157.398438 95.292969 C 157.398438 73.800781 139.976562 56.378906 118.484375 56.378906 Z M 118.484375 56.378906 " clip-rule="nonzero"/></clipPath><clipPath id="87632ef0e2"><path d="M 0 79 L 79 79 L 79 103 L 0 103 Z M 0 79 " clip-rule="nonzero"/></clipPath><clipPath id="d37fb09fa5"><path d="M 78.980469 77.816406 L 79.558594 102.527344 L 0.921875 104.375 L 0.34375 79.660156 Z M 78.980469 77.816406 " clip-rule="nonzero"/></clipPath><clipPath id="75533e9369"><path d="M 78.980469 77.816406 L 79.558594 102.527344 L 0.921875 104.375 L 0.34375 79.660156 Z M 78.980469 77.816406 " clip-rule="nonzero"/></clipPath><clipPath id="8eaf06b274"><path d="M 78.980469 77.816406 L 79.558594 102.527344 L 0.921875 104.375 L 0.34375 79.660156 Z M 78.980469 77.816406 " clip-rule="nonzero"/></clipPath><clipPath id="516b7aae81"><path d="M 237 11 L 309 11 L 309 77 L 237 77 Z M 237 11 " clip-rule="nonzero"/></clipPath><clipPath id="b4dea469d3"><path d="M 232.355469 56.730469 L 262.945312 0.03125 L 319.644531 30.617188 L 289.058594 87.316406 Z M 232.355469 56.730469 " clip-rule="nonzero"/></clipPath><clipPath id="2704fde85b"><path d="M 262.871094 0.164062 L 232.285156 56.863281 L 288.984375 87.453125 L 319.570312 30.75 Z M 262.871094 0.164062 " clip-rule="nonzero"/></clipPath><clipPath id="273ca6d1a5"><path d="M 262.871094 0.164062 L 232.285156 56.863281 L 288.984375 87.453125 L 319.570312 30.75 Z M 262.871094 0.164062 " clip-rule="nonzero"/></clipPath><clipPath id="03f8fd8ac4"><path d="M 236.980469 56.378906 L 314.816406 56.378906 L 314.816406 135.128906 L 236.980469 135.128906 Z M 236.980469 56.378906 " clip-rule="nonzero"/></clipPath><clipPath id="d2d6a3456e"><path d="M 275.898438 56.378906 C 254.40625 56.378906 236.980469 73.984375 236.980469 95.699219 C 236.980469 117.414062 254.40625 135.019531 275.898438 135.019531 C 297.394531 135.019531 314.816406 117.414062 314.816406 95.699219 C 314.816406 73.984375 297.394531 56.378906 275.898438 56.378906 Z M 275.898438 56.378906 " clip-rule="nonzero"/></clipPath><clipPath id="80c51e3a86"><path d="M 236.980469 56.382812 L 314.808594 56.382812 L 314.808594 135.039062 L 236.980469 135.039062 Z M 236.980469 56.382812 " clip-rule="nonzero"/></clipPath><clipPath id="2a2a060bcc"><path d="M 275.894531 56.382812 C 254.402344 56.382812 236.980469 73.984375 236.980469 95.695312 C 236.980469 117.410156 254.402344 135.011719 275.894531 135.011719 C 297.386719 135.011719 314.808594 117.410156 314.808594 95.695312 C 314.808594 73.984375 297.386719 56.382812 275.894531 56.382812 Z M 275.894531 56.382812 " clip-rule="nonzero"/></clipPath><clipPath id="1eff108c4d"><path d="M 397 11 L 468 11 L 468 77 L 397 77 Z M 397 11 " clip-rule="nonzero"/></clipPath><clipPath id="2ccc6bf8ed"><path d="M 391.859375 56.730469 L 422.445312 0.03125 L 479.144531 30.617188 L 448.558594 87.316406 Z M 391.859375 56.730469 " clip-rule="nonzero"/></clipPath><clipPath id="de3339a50c"><path d="M 422.375 0.164062 L 391.785156 56.863281 L 448.488281 87.453125 L 479.074219 30.75 Z M 422.375 0.164062 " clip-rule="nonzero"/></clipPath><clipPath id="e8815ef669"><path d="M 422.375 0.164062 L 391.785156 56.863281 L 448.488281 87.453125 L 479.074219 30.75 Z M 422.375 0.164062 " clip-rule="nonzero"/></clipPath><clipPath id="1ec107b65a"><path d="M 396.480469 56.378906 L 474.320312 56.378906 L 474.320312 135.128906 L 396.480469 135.128906 Z M 396.480469 56.378906 " clip-rule="nonzero"/></clipPath><clipPath id="ba63ffa2bd"><path d="M 435.402344 56.378906 C 413.90625 56.378906 396.480469 73.984375 396.480469 95.699219 C 396.480469 117.414062 413.90625 135.019531 435.402344 135.019531 C 456.894531 135.019531 474.320312 117.414062 474.320312 95.699219 C 474.320312 73.984375 456.894531 56.378906 435.402344 56.378906 Z M 435.402344 56.378906 " clip-rule="nonzero"/></clipPath><clipPath id="0794b47863"><path d="M 396.480469 56.382812 L 474.308594 56.382812 L 474.308594 135.039062 L 396.480469 135.039062 Z M 396.480469 56.382812 " clip-rule="nonzero"/></clipPath><clipPath id="c15deb2baa"><path d="M 435.394531 56.382812 C 413.902344 56.382812 396.480469 73.984375 396.480469 95.695312 C 396.480469 117.410156 413.902344 135.011719 435.394531 135.011719 C 456.886719 135.011719 474.308594 117.410156 474.308594 95.695312 C 474.308594 73.984375 456.886719 56.382812 435.394531 56.382812 Z M 435.394531 56.382812 " clip-rule="nonzero"/></clipPath><clipPath id="d398f89ec6"><path d="M 555 11 L 626 11 L 626 77 L 555 77 Z M 555 11 " clip-rule="nonzero"/></clipPath><clipPath id="886c3ea0a6"><path d="M 550.140625 56.730469 L 580.730469 0.03125 L 637.429688 30.617188 L 606.84375 87.316406 Z M 550.140625 56.730469 " clip-rule="nonzero"/></clipPath><clipPath id="10a539c46b"><path d="M 580.65625 0.164062 L 550.070312 56.863281 L 606.769531 87.453125 L 637.359375 30.75 Z M 580.65625 0.164062 " clip-rule="nonzero"/></clipPath><clipPath id="a8a6becc51"><path d="M 580.65625 0.164062 L 550.070312 56.863281 L 606.769531 87.453125 L 637.359375 30.75 Z M 580.65625 0.164062 " clip-rule="nonzero"/></clipPath><clipPath id="36720dc907"><path d="M 554.765625 56.378906 L 632.601562 56.378906 L 632.601562 135.128906 L 554.765625 135.128906 Z M 554.765625 56.378906 " clip-rule="nonzero"/></clipPath><clipPath id="3ed41adfb2"><path d="M 593.683594 56.378906 C 572.191406 56.378906 554.765625 73.984375 554.765625 95.699219 C 554.765625 117.414062 572.191406 135.019531 593.683594 135.019531 C 615.179688 135.019531 632.601562 117.414062 632.601562 95.699219 C 632.601562 73.984375 615.179688 56.378906 593.683594 56.378906 Z M 593.683594 56.378906 " clip-rule="nonzero"/></clipPath><clipPath id="e6a101aea5"><path d="M 554.765625 56.382812 L 632.59375 56.382812 L 632.59375 135.039062 L 554.765625 135.039062 Z M 554.765625 56.382812 " clip-rule="nonzero"/></clipPath><clipPath id="9b7cff3dfd"><path d="M 593.679688 56.382812 C 572.1875 56.382812 554.765625 73.984375 554.765625 95.695312 C 554.765625 117.410156 572.1875 135.011719 593.679688 135.011719 C 615.171875 135.011719 632.59375 117.410156 632.59375 95.695312 C 632.59375 73.984375 615.171875 56.382812 593.679688 56.382812 Z M 593.679688 56.382812 " clip-rule="nonzero"/></clipPath></defs><g clip-path="url(#b2a01c9215)"><g clip-path="url(#88702fc353)"><path fill="#d9d9d9" d="M 107.542969 198.664062 L 187.011719 198.664062 L 187.011719 278.132812 L 107.542969 278.132812 Z M 107.542969 198.664062 " fill-opacity="1" fill-rule="nonzero"/></g></g><g clip-path="url(#630074d0e5)"><g clip-path="url(#c2b1b7fbec)"><path stroke-linecap="butt" transform="matrix(0.74912, 0, 0, 0.74912, 107.542349, 198.66536)" fill="none" stroke-linejoin="miter" d="M 53.037033 -0.0017319 C 23.747448 -0.0017319 0.000826803 23.744889 0.000826803 53.039689 C 0.000826803 82.329274 23.747448 106.075895 53.037033 106.075895 C 82.331833 106.075895 106.078454 82.329274 106.078454 53.039689 C 106.078454 23.744889 82.331833 -0.0017319 53.037033 -0.0017319 Z M 53.037033 -0.0017319 " stroke="#000000" stroke-width="8" stroke-opacity="1" stroke-miterlimit="4"/></g></g><g fill="#000000" fill-opacity="1"><g transform="translate(136.313227, 234.623105)"><g><path d="M 0.84375 0 L 0.84375 -7.09375 L 4.453125 -7.09375 C 5.265625 -7.09375 5.867188 -6.910156 6.265625 -6.546875 C 6.660156 -6.191406 6.859375 -5.617188 6.859375 -4.828125 L 6.859375 0 Z M 1.921875 -1 L 5.78125 -1 L 5.78125 -4.609375 C 5.78125 -5.171875 5.65625 -5.554688 5.40625 -5.765625 C 5.15625 -5.984375 4.8125 -6.09375 4.375 -6.09375 L 1.921875 -6.09375 Z M 1.921875 -1 "/></g></g></g><g fill="#000000" fill-opacity="1"><g transform="translate(144.12806, 234.623105)"><g><path d="M 1.015625 0 L 1.015625 -7.09375 L 2.09375 -7.09375 L 2.09375 0 Z M 1.015625 0 "/></g></g></g><g fill="#000000" fill-opacity="1"><g transform="translate(147.244401, 234.623105)"><g><path d="M 0.90625 -2.546875 L 0.90625 -7.09375 L 1.984375 -7.09375 L 1.984375 -3.625 L 1.4375 -2.546875 Z M 0.90625 -2.546875 "/></g></g></g><g fill="#000000" fill-opacity="1"><g transform="translate(150.061099, 234.623105)"><g><path d="M 4.265625 0.15625 C 3.628906 0.15625 3.054688 0.015625 2.546875 -0.265625 C 2.046875 -0.546875 1.65625 -0.960938 1.375 -1.515625 C 1.09375 -2.066406 0.953125 -2.753906 0.953125 -3.578125 C 0.953125 -4.023438 0.988281 -4.46875 1.0625 -4.90625 C 1.132812 -5.351562 1.21875 -5.75 1.3125 -6.09375 L 0.421875 -6.09375 L 0.421875 -7.09375 L 4.203125 -7.09375 C 4.941406 -7.09375 5.5625 -6.941406 6.0625 -6.640625 C 6.5625 -6.347656 6.9375 -5.929688 7.1875 -5.390625 C 7.4375 -4.847656 7.5625 -4.21875 7.5625 -3.5 C 7.5625 -2.726562 7.425781 -2.070312 7.15625 -1.53125 C 6.882812 -0.988281 6.5 -0.570312 6 -0.28125 C 5.507812 0.0078125 4.929688 0.15625 4.265625 0.15625 Z M 4.203125 -0.78125 C 4.984375 -0.78125 5.550781 -1.023438 5.90625 -1.515625 C 6.269531 -2.015625 6.453125 -2.679688 6.453125 -3.515625 C 6.453125 -4.171875 6.347656 -4.6875 6.140625 -5.0625 C 5.941406 -5.4375 5.660156 -5.703125 5.296875 -5.859375 C 4.929688 -6.015625 4.503906 -6.09375 4.015625 -6.09375 L 2.390625 -6.09375 C 2.335938 -5.894531 2.269531 -5.585938 2.1875 -5.171875 C 2.101562 -4.753906 2.0625 -4.257812 2.0625 -3.6875 C 2.0625 -2.75 2.226562 -2.03125 2.5625 -1.53125 C 2.894531 -1.03125 3.441406 -0.78125 4.203125 -0.78125 Z M 4.203125 -0.78125 "/></g></g></g><g fill="#000000" fill-opacity="1"><g transform="translate(124.631642, 251.103738)"><g><path d="M 5.78125 0 L 5.78125 -4.609375 C 5.78125 -5.171875 5.65625 -5.554688 5.40625 -5.765625 C 5.15625 -5.984375 4.8125 -6.09375 4.375 -6.09375 L 1.015625 -6.09375 L 1.015625 -7.09375 L 4.453125 -7.09375 C 5.265625 -7.09375 5.867188 -6.910156 6.265625 -6.546875 C 6.660156 -6.191406 6.859375 -5.617188 6.859375 -4.828125 L 6.859375 0 Z M 1.015625 0 L 1.015625 -4.25 L 2.09375 -4.25 L 2.09375 0 Z M 1.015625 0 "/></g></g></g><g fill="#000000" fill-opacity="1"><g transform="translate(132.446475, 251.103738)"><g><path d="M 0.90625 -2.546875 L 0.90625 -7.09375 L 1.984375 -7.09375 L 1.984375 -3.625 L 1.4375 -2.546875 Z M 0.90625 -2.546875 "/></g></g></g><g fill="#000000" fill-opacity="1"><g transform="translate(135.263173, 251.103738)"><g><path d="M 0.296875 0 L 0.296875 -1 L 4.546875 -1 L 0.375 -7.09375 L 1.640625 -7.09375 L 4.0625 -3.390625 C 4.695312 -3.722656 5.015625 -4.453125 5.015625 -5.578125 L 5.015625 -7.09375 L 6.09375 -7.09375 L 6.09375 -5.65625 C 6.09375 -4.875 5.957031 -4.238281 5.6875 -3.75 C 5.414062 -3.257812 5.035156 -2.894531 4.546875 -2.65625 L 5.765625 -0.796875 L 5.765625 0 Z M 0.296875 0 "/></g></g></g><g fill="#000000" fill-opacity="1"><g transform="translate(141.963311, 251.103738)"><g><path d="M 1.265625 -7.09375 L 5.6875 -7.09375 L 5.6875 -6.28125 L 3.453125 0 L 2.3125 0 L 4.5625 -6.09375 L 0.1875 -6.09375 L 0.1875 -9.109375 L 1.265625 -9.109375 Z M 1.265625 -7.09375 "/></g></g></g><g fill="#000000" fill-opacity="1"><g transform="translate(148.076142, 251.103738)"><g><path d="M 1.015625 0 L 1.015625 -7.09375 L 2.09375 -7.09375 L 2.09375 0 Z M 1.015625 0 "/></g></g></g><g fill="#000000" fill-opacity="1"><g transform="translate(151.192482, 251.103738)"><g><path d="M 4.1875 -7.234375 C 5.019531 -7.234375 5.65625 -7.007812 6.09375 -6.5625 C 6.539062 -6.113281 6.765625 -5.53125 6.765625 -4.8125 L 6.765625 0 L 3.65625 0 L 3.65625 -1 L 5.6875 -1 L 5.6875 -4.640625 C 5.6875 -5.128906 5.5625 -5.523438 5.3125 -5.828125 C 5.0625 -6.140625 4.664062 -6.296875 4.125 -6.296875 C 3.488281 -6.296875 3.007812 -6.082031 2.6875 -5.65625 C 2.375 -5.226562 2.175781 -4.648438 2.09375 -3.921875 L 1.671875 0 L 0.59375 0 L 1.140625 -4.90625 L 0.65625 -7.09375 L 1.734375 -7.09375 L 1.9375 -6.09375 L 1.984375 -6.09375 C 2.117188 -6.289062 2.28125 -6.476562 2.46875 -6.65625 C 2.65625 -6.832031 2.882812 -6.972656 3.15625 -7.078125 C 3.4375 -7.179688 3.78125 -7.234375 4.1875 -7.234375 Z M 4.1875 -7.234375 "/></g></g></g><g fill="#000000" fill-opacity="1"><g transform="translate(158.923414, 251.103738)"><g><path d="M 0.90625 -2.546875 L 0.90625 -7.09375 L 1.984375 -7.09375 L 1.984375 -3.625 L 1.4375 -2.546875 Z M 0.90625 -2.546875 "/></g></g></g><g fill="#000000" fill-opacity="1"><g transform="translate(161.740112, 251.103738)"><g><path d="M 4.265625 0.15625 C 3.628906 0.15625 3.054688 0.015625 2.546875 -0.265625 C 2.046875 -0.546875 1.65625 -0.960938 1.375 -1.515625 C 1.09375 -2.066406 0.953125 -2.753906 0.953125 -3.578125 C 0.953125 -4.023438 0.988281 -4.46875 1.0625 -4.90625 C 1.132812 -5.351562 1.21875 -5.75 1.3125 -6.09375 L 0.421875 -6.09375 L 0.421875 -7.09375 L 4.203125 -7.09375 C 4.941406 -7.09375 5.5625 -6.941406 6.0625 -6.640625 C 6.5625 -6.347656 6.9375 -5.929688 7.1875 -5.390625 C 7.4375 -4.847656 7.5625 -4.21875 7.5625 -3.5 C 7.5625 -2.726562 7.425781 -2.070312 7.15625 -1.53125 C 6.882812 -0.988281 6.5 -0.570312 6 -0.28125 C 5.507812 0.0078125 4.929688 0.15625 4.265625 0.15625 Z M 4.203125 -0.78125 C 4.984375 -0.78125 5.550781 -1.023438 5.90625 -1.515625 C 6.269531 -2.015625 6.453125 -2.679688 6.453125 -3.515625 C 6.453125 -4.171875 6.347656 -4.6875 6.140625 -5.0625 C 5.941406 -5.4375 5.660156 -5.703125 5.296875 -5.859375 C 4.929688 -6.015625 4.503906 -6.09375 4.015625 -6.09375 L 2.390625 -6.09375 C 2.335938 -5.894531 2.269531 -5.585938 2.1875 -5.171875 C 2.101562 -4.753906 2.0625 -4.257812 2.0625 -3.6875 C 2.0625 -2.75 2.226562 -2.03125 2.5625 -1.53125 C 2.894531 -1.03125 3.441406 -0.78125 4.203125 -0.78125 Z M 4.203125 -0.78125 "/></g></g></g><g clip-path="url(#c89a033002)"><g clip-path="url(#569c750eba)"><g clip-path="url(#f4d057fef9)"><g clip-path="url(#fff9bfed82)"><path fill="#000001" d="M 96.242188 249.746094 C 95.089844 247.277344 96.773438 244.300781 98.097656 242.214844 C 98.75 241.175781 99.484375 240.210938 100.300781 239.328125 C 97.402344 239.816406 94.328125 241.15625 92.082031 242.175781 C 89.835938 243.195312 87.351562 244.199219 85.253906 245.535156 C 83.761719 246.476562 82.390625 247.515625 80.859375 248.375 C 80.152344 248.773438 79.269531 248.59375 78.835938 247.898438 C 75.585938 242.644531 72.179688 237.46875 68.636719 232.402344 C 62.9375 235.695312 57.179688 238.910156 51.441406 242.121094 C 50.617188 242.585938 49.8125 242.300781 49.257812 241.589844 C 45.832031 237.285156 42.425781 232.976562 39 228.667969 C 33.410156 231.515625 27.757812 234.207031 22.171875 237.035156 C 21.777344 237.222656 21.242188 237.355469 20.835938 237.066406 C 18.082031 235.054688 15.980469 232.027344 13.730469 229.484375 C 11.441406 226.898438 8.328125 224.074219 7.191406 220.71875 C 7.085938 220.421875 7.476562 220.050781 7.757812 220.265625 C 10.515625 222.292969 12.710938 225.140625 15.042969 227.660156 C 17.042969 229.828125 19.21875 232.515625 21.589844 234.328125 C 27.253906 231.300781 32.875 228.207031 38.601562 225.277344 C 39.445312 224.835938 40.230469 225.078125 40.804688 225.808594 C 44.1875 230.054688 47.59375 234.34375 51 238.652344 C 56.78125 235.4375 62.558594 232.203125 68.273438 228.886719 C 69.0625 228.425781 69.941406 228.6875 70.457031 229.421875 C 74.0625 234.527344 77.550781 239.71875 80.683594 245.140625 C 84.601562 243.195312 88.558594 241.351562 92.476562 239.371094 C 94.304688 238.441406 96.546875 237.242188 98.859375 236.5625 C 98.058594 236.28125 97.253906 235.976562 96.449219 235.632812 C 94.640625 234.890625 92.121094 233.582031 91.144531 231.8125 C 93.101562 231.285156 95.808594 232.085938 97.695312 232.746094 C 100.425781 233.6875 103.15625 234.628906 105.921875 235.472656 C 107.226562 235.863281 107.585938 237.667969 106.371094 238.417969 C 104.035156 239.863281 102.007812 241.703125 100.507812 244.050781 C 99.359375 245.890625 98.960938 248.476562 97.300781 249.882812 C 97.007812 250.109375 96.453125 250.183594 96.242188 249.746094 Z M 96.242188 249.746094 " fill-opacity="1" fill-rule="nonzero"/></g></g></g></g><g clip-path="url(#677b6416af)"><g clip-path="url(#2ed2ee4a1d)"><g clip-path="url(#096859564b)"><g clip-path="url(#e78d1cb308)"><path fill="#000000" d="M 106.859375 72.320312 C 106.972656 71.882812 107.273438 71.550781 107.71875 71.417969 C 108.066406 71.234375 108.554688 71.25 108.992188 71.359375 C 122.476562 76.03125 137.117188 70.28125 143.910156 57.691406 C 151.476562 43.660156 146.210938 26.054688 132.179688 18.484375 C 118.148438 10.917969 100.542969 16.183594 92.976562 30.214844 C 87.996094 39.441406 88.46875 50.984375 94.15625 59.761719 L 99.445312 49.957031 C 99.859375 49.1875 100.894531 48.878906 101.664062 49.292969 C 102.433594 49.707031 102.742188 50.742188 102.328125 51.511719 L 96.675781 61.988281 C 95.746094 63.71875 93.523438 64.382812 91.796875 63.449219 L 81.417969 57.847656 C 80.648438 57.433594 80.335938 56.398438 80.753906 55.628906 C 81.167969 54.863281 82.203125 54.550781 82.972656 54.964844 L 89.890625 58.699219 C 85.054688 49.265625 85.113281 37.882812 90.089844 28.660156 C 98.542969 12.992188 118.070312 7.152344 133.734375 15.601562 C 149.398438 24.050781 155.242188 43.582031 146.792969 59.246094 C 139.273438 73.179688 122.902344 79.609375 107.871094 74.355469 C 107.050781 74.035156 106.636719 73.191406 106.859375 72.320312 Z M 106.859375 72.320312 " fill-opacity="1" fill-rule="nonzero"/></g></g></g></g><g clip-path="url(#a759f76bf1)"><g clip-path="url(#ea925ce678)"><path fill="#d9d9d9" d="M 79.570312 56.378906 L 157.410156 56.378906 L 157.410156 134.21875 L 79.570312 134.21875 Z M 79.570312 56.378906 " fill-opacity="1" fill-rule="nonzero"/></g></g><g clip-path="url(#042c90f7a0)"><g clip-path="url(#971a35af5c)"><path stroke-linecap="butt" transform="matrix(0.74912, 0, 0, 0.74912, 79.571436, 56.380033)" fill="none" stroke-linejoin="miter" d="M 51.94489 -0.00150441 C 23.254965 -0.00150441 -0.00149927 23.25496 -0.00149927 51.944884 C -0.00149927 80.634809 23.254965 103.891273 51.94489 103.891273 C 80.634814 103.891273 103.891278 80.634809 103.891278 51.944884 C 103.891278 23.25496 80.634814 -0.00150441 51.94489 -0.00150441 Z M 51.94489 -0.00150441 " stroke="#000000" stroke-width="8" stroke-opacity="1" stroke-miterlimit="4"/></g></g><g fill="#000000" fill-opacity="1"><g transform="translate(104.854225, 91.588659)"><g><path d="M 0.421875 0 L 0.421875 -1 L 0.96875 -1 C 1.40625 -1 1.625 -1.363281 1.625 -2.09375 L 1.625 -6.09375 L 0.46875 -6.09375 L 0.46875 -7.09375 L 4.625 -7.09375 C 5.4375 -7.09375 6.039062 -6.910156 6.4375 -6.546875 C 6.832031 -6.191406 7.03125 -5.617188 7.03125 -4.828125 L 7.03125 0 L 5.953125 0 L 5.953125 -4.609375 C 5.953125 -5.171875 5.828125 -5.554688 5.578125 -5.765625 C 5.335938 -5.984375 4.992188 -6.09375 4.546875 -6.09375 L 2.703125 -6.09375 L 2.703125 -2.15625 C 2.703125 -1.4375 2.5625 -0.894531 2.28125 -0.53125 C 2.007812 -0.175781 1.550781 0 0.90625 0 Z M 0.421875 0 "/></g></g></g><g fill="#000000" fill-opacity="1"><g transform="translate(112.848851, 91.588659)"><g><path d="M 0.296875 0 L 0.296875 -1 L 2.234375 -1 L 0.828125 -7.09375 L 1.90625 -7.09375 L 3.28125 -1.046875 C 3.96875 -1.179688 4.5 -1.5 4.875 -2 C 5.257812 -2.5 5.492188 -3.25 5.578125 -4.25 L 5.84375 -7.09375 L 6.921875 -7.09375 L 6.65625 -4.25 C 6.625 -3.894531 6.566406 -3.519531 6.484375 -3.125 C 6.410156 -2.738281 6.285156 -2.359375 6.109375 -1.984375 C 5.929688 -1.609375 5.6875 -1.269531 5.375 -0.96875 C 5.070312 -0.675781 4.679688 -0.441406 4.203125 -0.265625 C 3.734375 -0.0859375 3.15625 0 2.46875 0 Z M 0.296875 0 "/></g></g></g><g fill="#000000" fill-opacity="1"><g transform="translate(120.136308, 91.588659)"><g><path d="M 0.1875 0.125 L 0.1875 -1.03125 C 0.488281 -1.144531 0.769531 -1.285156 1.03125 -1.453125 C 1.289062 -1.628906 1.515625 -1.828125 1.703125 -2.046875 C 2.222656 -2.648438 2.484375 -3.332031 2.484375 -4.09375 L 2.484375 -5.328125 C 2.484375 -5.609375 2.425781 -5.804688 2.3125 -5.921875 C 2.195312 -6.035156 2.019531 -6.09375 1.78125 -6.09375 L 0.640625 -6.09375 L 0.640625 -7.09375 L 2.09375 -7.09375 C 2.519531 -7.09375 2.867188 -6.96875 3.140625 -6.71875 C 3.410156 -6.476562 3.546875 -6.0625 3.546875 -5.46875 L 3.546875 -2.140625 L 3.796875 0 L 2.90625 0 L 2.578125 -1.96875 L 2.53125 -1.96875 C 2.3125 -1.570312 2.0625 -1.234375 1.78125 -0.953125 C 1.5 -0.679688 1.21875 -0.457031 0.9375 -0.28125 C 0.664062 -0.113281 0.414062 0.0195312 0.1875 0.125 Z M 0.1875 0.125 "/></g></g></g><g fill="#000000" fill-opacity="1"><g transform="translate(124.295433, 91.588659)"><g><path d="M 5.78125 0 L 5.78125 -4.609375 C 5.78125 -5.171875 5.65625 -5.554688 5.40625 -5.765625 C 5.15625 -5.984375 4.8125 -6.09375 4.375 -6.09375 L 1.015625 -6.09375 L 1.015625 -7.09375 L 4.453125 -7.09375 C 5.265625 -7.09375 5.867188 -6.910156 6.265625 -6.546875 C 6.660156 -6.191406 6.859375 -5.617188 6.859375 -4.828125 L 6.859375 0 Z M 1.015625 0 L 1.015625 -4.25 L 2.09375 -4.25 L 2.09375 0 Z M 1.015625 0 "/></g></g></g><g fill="#000000" fill-opacity="1"><g transform="translate(106.05984, 108.069292)"><g><path d="M 4.6875 -7.09375 C 5.5 -7.09375 6.101562 -6.910156 6.5 -6.546875 C 6.894531 -6.191406 7.09375 -5.617188 7.09375 -4.828125 L 7.09375 0 L 6.015625 0 L 6.015625 -4.609375 C 6.015625 -5.171875 5.890625 -5.554688 5.640625 -5.765625 C 5.390625 -5.984375 5.046875 -6.09375 4.609375 -6.09375 L 2.09375 -6.09375 L 2.09375 0 L 1.015625 0 L 1.015625 -7.09375 Z M 4.6875 -7.09375 "/></g></g></g><g fill="#000000" fill-opacity="1"><g transform="translate(114.114396, 108.069292)"><g><path d="M 1.015625 0 L 1.015625 -7.09375 L 2.09375 -7.09375 L 2.09375 0 Z M 1.015625 0 "/></g></g></g><g fill="#000000" fill-opacity="1"><g transform="translate(117.230737, 108.069292)"><g><path d="M 3.75 0 L 6 -6.09375 L 0.953125 -6.09375 L 0.953125 -7.09375 L 7.125 -7.09375 L 7.125 -6.28125 L 4.890625 0 Z M 0.953125 2.890625 L 0.953125 -4.34375 L 2.03125 -4.34375 L 2.03125 2.890625 Z M 0.953125 2.890625 "/></g></g></g><g fill="#000000" fill-opacity="1"><g transform="translate(124.781876, 108.069292)"><g><path d="M 1.265625 -7.09375 L 5.6875 -7.09375 L 5.6875 -6.28125 L 3.453125 0 L 2.3125 0 L 4.5625 -6.09375 L 0.1875 -6.09375 L 0.1875 -9.109375 L 1.265625 -9.109375 Z M 1.265625 -7.09375 "/></g></g></g><g clip-path="url(#87632ef0e2)"><g clip-path="url(#d37fb09fa5)"><g clip-path="url(#75533e9369)"><g clip-path="url(#8eaf06b274)"><path fill="#000001" d="M 70.324219 102.40625 C 69.421875 100.511719 70.742188 98.226562 71.78125 96.625 C 72.292969 95.828125 72.867188 95.085938 73.507812 94.40625 C 71.238281 94.785156 68.828125 95.816406 67.066406 96.597656 C 65.308594 97.378906 63.359375 98.152344 61.714844 99.179688 C 60.542969 99.902344 59.472656 100.699219 58.269531 101.359375 C 57.714844 101.667969 57.023438 101.527344 56.683594 100.996094 C 54.140625 96.960938 51.472656 92.992188 48.699219 89.105469 C 44.230469 91.636719 39.71875 94.105469 35.21875 96.574219 C 34.570312 96.925781 33.941406 96.710938 33.507812 96.164062 C 30.824219 92.859375 28.15625 89.554688 25.472656 86.25 C 21.09375 88.441406 16.664062 90.503906 12.28125 92.675781 C 11.972656 92.824219 11.554688 92.925781 11.238281 92.703125 C 9.078125 91.160156 7.433594 88.835938 5.671875 86.886719 C 3.875 84.90625 1.4375 82.738281 0.550781 80.164062 C 0.46875 79.933594 0.773438 79.648438 0.996094 79.8125 C 3.152344 81.371094 4.875 83.554688 6.699219 85.488281 C 8.265625 87.148438 9.96875 89.210938 11.828125 90.601562 C 16.265625 88.273438 20.675781 85.902344 25.164062 83.648438 C 25.824219 83.308594 26.4375 83.496094 26.890625 84.054688 C 29.539062 87.316406 32.207031 90.605469 34.875 93.910156 C 39.40625 91.4375 43.933594 88.953125 48.414062 86.410156 C 49.03125 86.054688 49.722656 86.253906 50.125 86.816406 C 52.949219 90.734375 55.679688 94.71875 58.132812 98.875 C 61.203125 97.382812 64.308594 95.96875 67.375 94.445312 C 68.8125 93.730469 70.566406 92.808594 72.382812 92.289062 C 71.753906 92.070312 71.121094 91.839844 70.492188 91.574219 C 69.074219 91.003906 67.101562 90 66.335938 88.644531 C 67.871094 88.238281 69.992188 88.851562 71.46875 89.359375 C 73.609375 90.082031 75.75 90.804688 77.917969 91.445312 C 78.9375 91.746094 79.222656 93.132812 78.265625 93.710938 C 76.4375 94.816406 74.847656 96.230469 73.671875 98.035156 C 72.769531 99.445312 72.457031 101.429688 71.15625 102.511719 C 70.925781 102.683594 70.488281 102.742188 70.324219 102.40625 Z M 70.324219 102.40625 " fill-opacity="1" fill-rule="nonzero"/></g></g></g></g><path stroke-linecap="butt" transform="matrix(0.749099, 0.00558071, -0.00558071, 0.749099, 157.585577, 93.225302)" fill="none" stroke-linejoin="miter" d="M -0.000271508 1.998876 L 101.079532 2.001959 " stroke="#000000" stroke-width="4" stroke-opacity="1" stroke-miterlimit="4"/><path stroke-linecap="round" transform="matrix(0.749099, 0.00558071, -0.00558071, 0.749099, 157.585577, 93.225302)" fill="none" stroke-linejoin="round" d="M 93.082571 -3.997828 L 101.079532 2.001959 L 93.083312 8.000958 " stroke="#000000" stroke-width="4" stroke-opacity="1" stroke-miterlimit="4"/><g clip-path="url(#516b7aae81)"><g clip-path="url(#b4dea469d3)"><g clip-path="url(#2704fde85b)"><g clip-path="url(#273ca6d1a5)"><path fill="#000000" d="M 264.269531 72.320312 C 264.378906 71.882812 264.683594 71.550781 265.128906 71.417969 C 265.476562 71.234375 265.964844 71.25 266.398438 71.359375 C 279.886719 76.03125 294.527344 70.28125 301.316406 57.691406 C 308.886719 43.660156 303.621094 26.054688 289.589844 18.484375 C 275.558594 10.917969 257.953125 16.183594 250.382812 30.214844 C 245.40625 39.441406 245.878906 50.984375 251.566406 59.761719 L 256.855469 49.957031 C 257.269531 49.1875 258.304688 48.878906 259.074219 49.292969 C 259.84375 49.707031 260.152344 50.742188 259.738281 51.511719 L 254.085938 61.988281 C 253.152344 63.71875 250.933594 64.382812 249.203125 63.449219 L 238.824219 57.847656 C 238.054688 57.433594 237.746094 56.398438 238.160156 55.628906 C 238.574219 54.863281 239.613281 54.550781 240.378906 54.964844 L 247.300781 58.699219 C 242.464844 49.265625 242.523438 37.882812 247.5 28.660156 C 255.949219 12.992188 275.480469 7.152344 291.144531 15.601562 C 306.808594 24.050781 312.652344 43.582031 304.199219 59.246094 C 296.683594 73.179688 280.3125 79.609375 265.28125 74.355469 C 264.460938 74.035156 264.046875 73.191406 264.269531 72.320312 Z M 264.269531 72.320312 " fill-opacity="1" fill-rule="nonzero"/></g></g></g></g><g clip-path="url(#03f8fd8ac4)"><g clip-path="url(#d2d6a3456e)"><path fill="#d9d9d9" d="M 236.980469 56.378906 L 314.816406 56.378906 L 314.816406 135.128906 L 236.980469 135.128906 Z M 236.980469 56.378906 " fill-opacity="1" fill-rule="nonzero"/></g></g><g clip-path="url(#80c51e3a86)"><g clip-path="url(#2a2a060bcc)"><path stroke-linecap="butt" transform="matrix(0.74912, 0, 0, 0.74912, 236.980312, 56.382747)" fill="none" stroke-linejoin="miter" d="M 51.946598 0.0000876462 C 23.256674 0.0000876462 0.000209563 23.496416 0.000209563 52.478351 C 0.000209563 81.465499 23.256674 104.961828 51.946598 104.961828 C 80.631309 104.961828 103.892987 81.465499 103.892987 52.478351 C 103.892987 23.496416 80.631309 0.0000876462 51.946598 0.0000876462 Z M 51.946598 0.0000876462 " stroke="#000000" stroke-width="8" stroke-opacity="1" stroke-miterlimit="4"/></g></g><g fill="#000000" fill-opacity="1"><g transform="translate(264.93184, 83.348342)"><g><path d="M 0.84375 0 L 0.84375 -7.09375 L 4.453125 -7.09375 C 5.265625 -7.09375 5.867188 -6.910156 6.265625 -6.546875 C 6.660156 -6.191406 6.859375 -5.617188 6.859375 -4.828125 L 6.859375 0 Z M 1.921875 -1 L 5.78125 -1 L 5.78125 -4.609375 C 5.78125 -5.171875 5.65625 -5.554688 5.40625 -5.765625 C 5.15625 -5.984375 4.8125 -6.09375 4.375 -6.09375 L 1.921875 -6.09375 Z M 1.921875 -1 "/></g></g></g><g fill="#000000" fill-opacity="1"><g transform="translate(272.746673, 83.348342)"><g><path d="M 1.015625 0 L 1.015625 -7.09375 L 2.09375 -7.09375 L 2.09375 0 Z M 1.015625 0 "/></g></g></g><g fill="#000000" fill-opacity="1"><g transform="translate(275.863014, 83.348342)"><g><path d="M 0.90625 -2.546875 L 0.90625 -7.09375 L 1.984375 -7.09375 L 1.984375 -3.625 L 1.4375 -2.546875 Z M 0.90625 -2.546875 "/></g></g></g><g fill="#000000" fill-opacity="1"><g transform="translate(278.679711, 83.348342)"><g><path d="M 4.265625 0.15625 C 3.628906 0.15625 3.054688 0.015625 2.546875 -0.265625 C 2.046875 -0.546875 1.65625 -0.960938 1.375 -1.515625 C 1.09375 -2.066406 0.953125 -2.753906 0.953125 -3.578125 C 0.953125 -4.023438 0.988281 -4.46875 1.0625 -4.90625 C 1.132812 -5.351562 1.21875 -5.75 1.3125 -6.09375 L 0.421875 -6.09375 L 0.421875 -7.09375 L 4.203125 -7.09375 C 4.941406 -7.09375 5.5625 -6.941406 6.0625 -6.640625 C 6.5625 -6.347656 6.9375 -5.929688 7.1875 -5.390625 C 7.4375 -4.847656 7.5625 -4.21875 7.5625 -3.5 C 7.5625 -2.726562 7.425781 -2.070312 7.15625 -1.53125 C 6.882812 -0.988281 6.5 -0.570312 6 -0.28125 C 5.507812 0.0078125 4.929688 0.15625 4.265625 0.15625 Z M 4.203125 -0.78125 C 4.984375 -0.78125 5.550781 -1.023438 5.90625 -1.515625 C 6.269531 -2.015625 6.453125 -2.679688 6.453125 -3.515625 C 6.453125 -4.171875 6.347656 -4.6875 6.140625 -5.0625 C 5.941406 -5.4375 5.660156 -5.703125 5.296875 -5.859375 C 4.929688 -6.015625 4.503906 -6.09375 4.015625 -6.09375 L 2.390625 -6.09375 C 2.335938 -5.894531 2.269531 -5.585938 2.1875 -5.171875 C 2.101562 -4.753906 2.0625 -4.257812 2.0625 -3.6875 C 2.0625 -2.75 2.226562 -2.03125 2.5625 -1.53125 C 2.894531 -1.03125 3.441406 -0.78125 4.203125 -0.78125 Z M 4.203125 -0.78125 "/></g></g></g><g fill="#000000" fill-opacity="1"><g transform="translate(261.244767, 99.828975)"><g><path d="M 0.421875 0 L 0.421875 -1 L 0.96875 -1 C 1.40625 -1 1.625 -1.363281 1.625 -2.09375 L 1.625 -6.09375 L 0.46875 -6.09375 L 0.46875 -7.09375 L 4.625 -7.09375 C 5.4375 -7.09375 6.039062 -6.910156 6.4375 -6.546875 C 6.832031 -6.191406 7.03125 -5.617188 7.03125 -4.828125 L 7.03125 0 L 5.953125 0 L 5.953125 -4.609375 C 5.953125 -5.171875 5.828125 -5.554688 5.578125 -5.765625 C 5.335938 -5.984375 4.992188 -6.09375 4.546875 -6.09375 L 2.703125 -6.09375 L 2.703125 -2.15625 C 2.703125 -1.4375 2.5625 -0.894531 2.28125 -0.53125 C 2.007812 -0.175781 1.550781 0 0.90625 0 Z M 0.421875 0 "/></g></g></g><g fill="#000000" fill-opacity="1"><g transform="translate(269.239393, 99.828975)"><g><path d="M 3.796875 0 L 3.796875 -6.09375 L 0.125 -6.09375 L 0.125 -7.09375 L 5.96875 -7.09375 L 5.96875 -6.09375 L 4.875 -6.09375 L 4.875 0 Z M 3.796875 0 "/></g></g></g><g fill="#000000" fill-opacity="1"><g transform="translate(275.508035, 99.828975)"><g><path d="M 4.1875 -7.234375 C 5.019531 -7.234375 5.65625 -7.007812 6.09375 -6.5625 C 6.539062 -6.113281 6.765625 -5.53125 6.765625 -4.8125 L 6.765625 0 L 3.65625 0 L 3.65625 -1 L 5.6875 -1 L 5.6875 -4.640625 C 5.6875 -5.128906 5.5625 -5.523438 5.3125 -5.828125 C 5.0625 -6.140625 4.664062 -6.296875 4.125 -6.296875 C 3.488281 -6.296875 3.007812 -6.082031 2.6875 -5.65625 C 2.375 -5.226562 2.175781 -4.648438 2.09375 -3.921875 L 1.671875 0 L 0.59375 0 L 1.140625 -4.90625 L 0.65625 -7.09375 L 1.734375 -7.09375 L 1.9375 -6.09375 L 1.984375 -6.09375 C 2.117188 -6.289062 2.28125 -6.476562 2.46875 -6.65625 C 2.65625 -6.832031 2.882812 -6.972656 3.15625 -7.078125 C 3.4375 -7.179688 3.78125 -7.234375 4.1875 -7.234375 Z M 4.1875 -7.234375 "/></g></g></g><g fill="#000000" fill-opacity="1"><g transform="translate(283.238967, 99.828975)"><g><path d="M 0.296875 0 L 0.296875 -1 L 2.234375 -1 L 0.828125 -7.09375 L 1.90625 -7.09375 L 3.28125 -1.046875 C 3.96875 -1.179688 4.5 -1.5 4.875 -2 C 5.257812 -2.5 5.492188 -3.25 5.578125 -4.25 L 5.84375 -7.09375 L 6.921875 -7.09375 L 6.65625 -4.25 C 6.625 -3.894531 6.566406 -3.519531 6.484375 -3.125 C 6.410156 -2.738281 6.285156 -2.359375 6.109375 -1.984375 C 5.929688 -1.609375 5.6875 -1.269531 5.375 -0.96875 C 5.070312 -0.675781 4.679688 -0.441406 4.203125 -0.265625 C 3.734375 -0.0859375 3.15625 0 2.46875 0 Z M 0.296875 0 "/></g></g></g><g fill="#000000" fill-opacity="1"><g transform="translate(260.027447, 116.309608)"><g><path d="M 5.78125 0 L 5.78125 -4.609375 C 5.78125 -5.171875 5.65625 -5.554688 5.40625 -5.765625 C 5.15625 -5.984375 4.8125 -6.09375 4.375 -6.09375 L 1.015625 -6.09375 L 1.015625 -7.09375 L 4.453125 -7.09375 C 5.265625 -7.09375 5.867188 -6.910156 6.265625 -6.546875 C 6.660156 -6.191406 6.859375 -5.617188 6.859375 -4.828125 L 6.859375 0 Z M 1.015625 0 L 1.015625 -4.25 L 2.09375 -4.25 L 2.09375 0 Z M 1.015625 0 "/></g></g></g><g fill="#000000" fill-opacity="1"><g transform="translate(267.84228, 116.309608)"><g><path d="M 0.359375 0 L 0.359375 -1 L 2.71875 -1 L 2.71875 -5.328125 C 2.71875 -5.609375 2.660156 -5.804688 2.546875 -5.921875 C 2.429688 -6.035156 2.257812 -6.09375 2.03125 -6.09375 L 0.75 -6.09375 L 0.75 -7.09375 L 2.34375 -7.09375 C 2.757812 -7.09375 3.101562 -6.96875 3.375 -6.71875 C 3.65625 -6.476562 3.796875 -6.0625 3.796875 -5.46875 L 3.796875 0 Z M 0.359375 0 "/></g></g></g><g fill="#000000" fill-opacity="1"><g transform="translate(272.600704, 116.309608)"><g><path d="M 4.1875 -7.234375 C 5.019531 -7.234375 5.65625 -7.007812 6.09375 -6.5625 C 6.539062 -6.113281 6.765625 -5.53125 6.765625 -4.8125 L 6.765625 0 L 3.65625 0 L 3.65625 -1 L 5.6875 -1 L 5.6875 -4.640625 C 5.6875 -5.128906 5.5625 -5.523438 5.3125 -5.828125 C 5.0625 -6.140625 4.664062 -6.296875 4.125 -6.296875 C 3.488281 -6.296875 3.007812 -6.082031 2.6875 -5.65625 C 2.375 -5.226562 2.175781 -4.648438 2.09375 -3.921875 L 1.671875 0 L 0.59375 0 L 1.140625 -4.90625 L 0.65625 -7.09375 L 1.734375 -7.09375 L 1.9375 -6.09375 L 1.984375 -6.09375 C 2.117188 -6.289062 2.28125 -6.476562 2.46875 -6.65625 C 2.65625 -6.832031 2.882812 -6.972656 3.15625 -7.078125 C 3.4375 -7.179688 3.78125 -7.234375 4.1875 -7.234375 Z M 4.1875 -7.234375 "/></g></g></g><g fill="#000000" fill-opacity="1"><g transform="translate(280.331636, 116.309608)"><g><path d="M 1.1875 0 L 1.1875 -4.1875 C 1.1875 -4.5625 1.238281 -4.875 1.34375 -5.125 C 1.445312 -5.382812 1.566406 -5.585938 1.703125 -5.734375 C 1.847656 -5.878906 1.976562 -5.988281 2.09375 -6.0625 L 2.09375 -6.09375 L 0.296875 -6.09375 L 0.296875 -7.09375 L 3.296875 -7.09375 L 3.296875 -6.1875 C 3.222656 -6.132812 3.101562 -6.039062 2.9375 -5.90625 C 2.769531 -5.769531 2.613281 -5.570312 2.46875 -5.3125 C 2.332031 -5.0625 2.265625 -4.726562 2.265625 -4.3125 L 2.265625 0 Z M 1.1875 0 "/></g></g></g><g fill="#000000" fill-opacity="1"><g transform="translate(283.927413, 116.309608)"><g><path d="M 5.78125 0 L 5.78125 -4.609375 C 5.78125 -5.171875 5.65625 -5.554688 5.40625 -5.765625 C 5.15625 -5.984375 4.8125 -6.09375 4.375 -6.09375 L 1.015625 -6.09375 L 1.015625 -7.09375 L 4.453125 -7.09375 C 5.265625 -7.09375 5.867188 -6.910156 6.265625 -6.546875 C 6.660156 -6.191406 6.859375 -5.617188 6.859375 -4.828125 L 6.859375 0 Z M 1.015625 0 L 1.015625 -4.25 L 2.09375 -4.25 L 2.09375 0 Z M 1.015625 0 "/></g></g></g><path stroke-linecap="butt" transform="matrix(0.749099, 0.00558071, -0.00558071, 0.749099, 317.087439, 93.225302)" fill="none" stroke-linejoin="miter" d="M 0.00245808 1.998856 L 101.082261 2.001939 " stroke="#000000" stroke-width="4" stroke-opacity="1" stroke-miterlimit="4"/><path stroke-linecap="round" transform="matrix(0.749099, 0.00558071, -0.00558071, 0.749099, 317.087439, 93.225302)" fill="none" stroke-linejoin="round" d="M 93.080086 -3.997809 L 101.082261 2.001939 L 93.080828 8.000977 " stroke="#000000" stroke-width="4" stroke-opacity="1" stroke-miterlimit="4"/><g clip-path="url(#1eff108c4d)"><g clip-path="url(#2ccc6bf8ed)"><g clip-path="url(#de3339a50c)"><g clip-path="url(#e8815ef669)"><path fill="#000000" d="M 423.769531 72.320312 C 423.882812 71.882812 424.1875 71.550781 424.628906 71.417969 C 424.976562 71.234375 425.464844 71.25 425.902344 71.359375 C 439.386719 76.03125 454.027344 70.28125 460.820312 57.691406 C 468.386719 43.660156 463.121094 26.054688 449.089844 18.484375 C 435.058594 10.917969 417.453125 16.183594 409.886719 30.214844 C 404.910156 39.441406 405.378906 50.984375 411.066406 59.761719 L 416.355469 49.957031 C 416.769531 49.1875 417.804688 48.878906 418.574219 49.292969 C 419.34375 49.707031 419.652344 50.742188 419.238281 51.511719 L 413.589844 61.988281 C 412.65625 63.71875 410.4375 64.382812 408.707031 63.449219 L 398.328125 57.847656 C 397.558594 57.433594 397.25 56.398438 397.664062 55.628906 C 398.078125 54.863281 399.113281 54.550781 399.882812 54.964844 L 406.800781 58.699219 C 401.964844 49.265625 402.027344 37.882812 407.003906 28.660156 C 415.453125 12.992188 434.980469 7.152344 450.644531 15.601562 C 466.3125 24.050781 472.152344 43.582031 463.703125 59.246094 C 456.183594 73.179688 439.8125 79.609375 424.78125 74.355469 C 423.960938 74.035156 423.546875 73.191406 423.769531 72.320312 Z M 423.769531 72.320312 " fill-opacity="1" fill-rule="nonzero"/></g></g></g></g><g clip-path="url(#1ec107b65a)"><g clip-path="url(#ba63ffa2bd)"><path fill="#d9d9d9" d="M 396.480469 56.378906 L 474.320312 56.378906 L 474.320312 135.128906 L 396.480469 135.128906 Z M 396.480469 56.378906 " fill-opacity="1" fill-rule="nonzero"/></g></g><g clip-path="url(#0794b47863)"><g clip-path="url(#c15deb2baa)"><path stroke-linecap="butt" transform="matrix(0.74912, 0, 0, 0.74912, 396.482188, 56.382747)" fill="none" stroke-linejoin="miter" d="M 51.944094 0.0000876462 C 23.25417 0.0000876462 -0.00229442 23.496416 -0.00229442 52.478351 C -0.00229442 81.465499 23.25417 104.961828 51.944094 104.961828 C 80.634019 104.961828 103.890483 81.465499 103.890483 52.478351 C 103.890483 23.496416 80.634019 0.0000876462 51.944094 0.0000876462 Z M 51.944094 0.0000876462 " stroke="#000000" stroke-width="8" stroke-opacity="1" stroke-miterlimit="4"/></g></g><g fill="#000000" fill-opacity="1"><g transform="translate(424.433716, 83.348342)"><g><path d="M 0.84375 0 L 0.84375 -7.09375 L 4.453125 -7.09375 C 5.265625 -7.09375 5.867188 -6.910156 6.265625 -6.546875 C 6.660156 -6.191406 6.859375 -5.617188 6.859375 -4.828125 L 6.859375 0 Z M 1.921875 -1 L 5.78125 -1 L 5.78125 -4.609375 C 5.78125 -5.171875 5.65625 -5.554688 5.40625 -5.765625 C 5.15625 -5.984375 4.8125 -6.09375 4.375 -6.09375 L 1.921875 -6.09375 Z M 1.921875 -1 "/></g></g></g><g fill="#000000" fill-opacity="1"><g transform="translate(432.248549, 83.348342)"><g><path d="M 1.015625 0 L 1.015625 -7.09375 L 2.09375 -7.09375 L 2.09375 0 Z M 1.015625 0 "/></g></g></g><g fill="#000000" fill-opacity="1"><g transform="translate(435.36489, 83.348342)"><g><path d="M 0.90625 -2.546875 L 0.90625 -7.09375 L 1.984375 -7.09375 L 1.984375 -3.625 L 1.4375 -2.546875 Z M 0.90625 -2.546875 "/></g></g></g><g fill="#000000" fill-opacity="1"><g transform="translate(438.181587, 83.348342)"><g><path d="M 4.265625 0.15625 C 3.628906 0.15625 3.054688 0.015625 2.546875 -0.265625 C 2.046875 -0.546875 1.65625 -0.960938 1.375 -1.515625 C 1.09375 -2.066406 0.953125 -2.753906 0.953125 -3.578125 C 0.953125 -4.023438 0.988281 -4.46875 1.0625 -4.90625 C 1.132812 -5.351562 1.21875 -5.75 1.3125 -6.09375 L 0.421875 -6.09375 L 0.421875 -7.09375 L 4.203125 -7.09375 C 4.941406 -7.09375 5.5625 -6.941406 6.0625 -6.640625 C 6.5625 -6.347656 6.9375 -5.929688 7.1875 -5.390625 C 7.4375 -4.847656 7.5625 -4.21875 7.5625 -3.5 C 7.5625 -2.726562 7.425781 -2.070312 7.15625 -1.53125 C 6.882812 -0.988281 6.5 -0.570312 6 -0.28125 C 5.507812 0.0078125 4.929688 0.15625 4.265625 0.15625 Z M 4.203125 -0.78125 C 4.984375 -0.78125 5.550781 -1.023438 5.90625 -1.515625 C 6.269531 -2.015625 6.453125 -2.679688 6.453125 -3.515625 C 6.453125 -4.171875 6.347656 -4.6875 6.140625 -5.0625 C 5.941406 -5.4375 5.660156 -5.703125 5.296875 -5.859375 C 4.929688 -6.015625 4.503906 -6.09375 4.015625 -6.09375 L 2.390625 -6.09375 C 2.335938 -5.894531 2.269531 -5.585938 2.1875 -5.171875 C 2.101562 -4.753906 2.0625 -4.257812 2.0625 -3.6875 C 2.0625 -2.75 2.226562 -2.03125 2.5625 -1.53125 C 2.894531 -1.03125 3.441406 -0.78125 4.203125 -0.78125 Z M 4.203125 -0.78125 "/></g></g></g><g fill="#000000" fill-opacity="1"><g transform="translate(420.746642, 99.828975)"><g><path d="M 0.421875 0 L 0.421875 -1 L 0.96875 -1 C 1.40625 -1 1.625 -1.363281 1.625 -2.09375 L 1.625 -6.09375 L 0.46875 -6.09375 L 0.46875 -7.09375 L 4.625 -7.09375 C 5.4375 -7.09375 6.039062 -6.910156 6.4375 -6.546875 C 6.832031 -6.191406 7.03125 -5.617188 7.03125 -4.828125 L 7.03125 0 L 5.953125 0 L 5.953125 -4.609375 C 5.953125 -5.171875 5.828125 -5.554688 5.578125 -5.765625 C 5.335938 -5.984375 4.992188 -6.09375 4.546875 -6.09375 L 2.703125 -6.09375 L 2.703125 -2.15625 C 2.703125 -1.4375 2.5625 -0.894531 2.28125 -0.53125 C 2.007812 -0.175781 1.550781 0 0.90625 0 Z M 0.421875 0 "/></g></g></g><g fill="#000000" fill-opacity="1"><g transform="translate(428.741268, 99.828975)"><g><path d="M 3.796875 0 L 3.796875 -6.09375 L 0.125 -6.09375 L 0.125 -7.09375 L 5.96875 -7.09375 L 5.96875 -6.09375 L 4.875 -6.09375 L 4.875 0 Z M 3.796875 0 "/></g></g></g><g fill="#000000" fill-opacity="1"><g transform="translate(435.009911, 99.828975)"><g><path d="M 4.1875 -7.234375 C 5.019531 -7.234375 5.65625 -7.007812 6.09375 -6.5625 C 6.539062 -6.113281 6.765625 -5.53125 6.765625 -4.8125 L 6.765625 0 L 3.65625 0 L 3.65625 -1 L 5.6875 -1 L 5.6875 -4.640625 C 5.6875 -5.128906 5.5625 -5.523438 5.3125 -5.828125 C 5.0625 -6.140625 4.664062 -6.296875 4.125 -6.296875 C 3.488281 -6.296875 3.007812 -6.082031 2.6875 -5.65625 C 2.375 -5.226562 2.175781 -4.648438 2.09375 -3.921875 L 1.671875 0 L 0.59375 0 L 1.140625 -4.90625 L 0.65625 -7.09375 L 1.734375 -7.09375 L 1.9375 -6.09375 L 1.984375 -6.09375 C 2.117188 -6.289062 2.28125 -6.476562 2.46875 -6.65625 C 2.65625 -6.832031 2.882812 -6.972656 3.15625 -7.078125 C 3.4375 -7.179688 3.78125 -7.234375 4.1875 -7.234375 Z M 4.1875 -7.234375 "/></g></g></g><g fill="#000000" fill-opacity="1"><g transform="translate(442.740843, 99.828975)"><g><path d="M 0.296875 0 L 0.296875 -1 L 2.234375 -1 L 0.828125 -7.09375 L 1.90625 -7.09375 L 3.28125 -1.046875 C 3.96875 -1.179688 4.5 -1.5 4.875 -2 C 5.257812 -2.5 5.492188 -3.25 5.578125 -4.25 L 5.84375 -7.09375 L 6.921875 -7.09375 L 6.65625 -4.25 C 6.625 -3.894531 6.566406 -3.519531 6.484375 -3.125 C 6.410156 -2.738281 6.285156 -2.359375 6.109375 -1.984375 C 5.929688 -1.609375 5.6875 -1.269531 5.375 -0.96875 C 5.070312 -0.675781 4.679688 -0.441406 4.203125 -0.265625 C 3.734375 -0.0859375 3.15625 0 2.46875 0 Z M 0.296875 0 "/></g></g></g><g fill="#000000" fill-opacity="1"><g transform="translate(421.963962, 116.309608)"><g><path d="M 5.78125 0 L 5.78125 -4.609375 C 5.78125 -5.171875 5.65625 -5.554688 5.40625 -5.765625 C 5.15625 -5.984375 4.8125 -6.09375 4.375 -6.09375 L 1.015625 -6.09375 L 1.015625 -7.09375 L 4.453125 -7.09375 C 5.265625 -7.09375 5.867188 -6.910156 6.265625 -6.546875 C 6.660156 -6.191406 6.859375 -5.617188 6.859375 -4.828125 L 6.859375 0 Z M 1.015625 0 L 1.015625 -4.25 L 2.09375 -4.25 L 2.09375 0 Z M 1.015625 0 "/></g></g></g><g fill="#000000" fill-opacity="1"><g transform="translate(429.778795, 116.309608)"><g><path d="M 0.359375 0 L 0.359375 -1 L 2.71875 -1 L 2.71875 -5.328125 C 2.71875 -5.609375 2.660156 -5.804688 2.546875 -5.921875 C 2.429688 -6.035156 2.257812 -6.09375 2.03125 -6.09375 L 0.75 -6.09375 L 0.75 -7.09375 L 2.34375 -7.09375 C 2.757812 -7.09375 3.101562 -6.96875 3.375 -6.71875 C 3.65625 -6.476562 3.796875 -6.0625 3.796875 -5.46875 L 3.796875 0 Z M 0.359375 0 "/></g></g></g><g fill="#000000" fill-opacity="1"><g transform="translate(434.537218, 116.309608)"><g><path d="M 0.359375 0 L 0.359375 -1 L 2.65625 -1 C 3.382812 -1 3.914062 -1.234375 4.25 -1.703125 C 4.582031 -2.179688 4.75 -2.796875 4.75 -3.546875 C 4.75 -4.378906 4.550781 -5.007812 4.15625 -5.4375 C 3.757812 -5.875 3.160156 -6.09375 2.359375 -6.09375 L 0.359375 -6.09375 L 0.359375 -7.09375 L 2.484375 -7.09375 C 3.222656 -7.09375 3.84375 -6.941406 4.34375 -6.640625 C 4.851562 -6.347656 5.234375 -5.9375 5.484375 -5.40625 C 5.742188 -4.882812 5.875 -4.273438 5.875 -3.578125 C 5.875 -2.898438 5.75 -2.289062 5.5 -1.75 C 5.257812 -1.21875 4.898438 -0.789062 4.421875 -0.46875 C 3.953125 -0.15625 3.363281 0 2.65625 0 Z M 0.359375 0 "/></g></g></g><g fill="#000000" fill-opacity="1"><g transform="translate(441.009624, 116.309608)"><g><path d="M 5.78125 0 L 5.78125 -4.609375 C 5.78125 -5.171875 5.65625 -5.554688 5.40625 -5.765625 C 5.15625 -5.984375 4.8125 -6.09375 4.375 -6.09375 L 1.015625 -6.09375 L 1.015625 -7.09375 L 4.453125 -7.09375 C 5.265625 -7.09375 5.867188 -6.910156 6.265625 -6.546875 C 6.660156 -6.191406 6.859375 -5.617188 6.859375 -4.828125 L 6.859375 0 Z M 1.015625 0 L 1.015625 -4.25 L 2.09375 -4.25 L 2.09375 0 Z M 1.015625 0 "/></g></g></g><path stroke-linecap="butt" transform="matrix(0.749099, 0.00558071, -0.00558071, 0.749099, 475.371313, 93.225302)" fill="none" stroke-linejoin="miter" d="M -0.00104499 1.998882 L 101.078758 2.001965 " stroke="#000000" stroke-width="4" stroke-opacity="1" stroke-miterlimit="4"/><path stroke-linecap="round" transform="matrix(0.749099, 0.00558071, -0.00558071, 0.749099, 475.371313, 93.225302)" fill="none" stroke-linejoin="round" d="M 93.081797 -3.997822 L 101.078758 2.001965 L 93.082539 8.000964 " stroke="#000000" stroke-width="4" stroke-opacity="1" stroke-miterlimit="4"/><g clip-path="url(#d398f89ec6)"><g clip-path="url(#886c3ea0a6)"><g clip-path="url(#10a539c46b)"><g clip-path="url(#a8a6becc51)"><path fill="#000000" d="M 582.054688 72.320312 C 582.167969 71.882812 582.46875 71.550781 582.914062 71.417969 C 583.261719 71.234375 583.75 71.25 584.1875 71.359375 C 597.671875 76.03125 612.3125 70.28125 619.101562 57.691406 C 626.671875 43.660156 621.40625 26.054688 607.375 18.484375 C 593.34375 10.917969 575.738281 16.183594 568.167969 30.214844 C 563.191406 39.441406 563.664062 50.984375 569.351562 59.761719 L 574.640625 49.957031 C 575.054688 49.1875 576.089844 48.878906 576.859375 49.292969 C 577.628906 49.707031 577.9375 50.742188 577.523438 51.511719 L 571.871094 61.988281 C 570.9375 63.71875 568.71875 64.382812 566.988281 63.449219 L 556.609375 57.847656 C 555.84375 57.433594 555.53125 56.398438 555.945312 55.628906 C 556.363281 54.863281 557.398438 54.550781 558.167969 54.964844 L 565.085938 58.699219 C 560.25 49.265625 560.308594 37.882812 565.285156 28.660156 C 573.738281 12.992188 593.265625 7.152344 608.929688 15.601562 C 624.59375 24.050781 630.4375 43.582031 621.984375 59.246094 C 614.46875 73.179688 598.097656 79.609375 583.066406 74.355469 C 582.246094 74.035156 581.832031 73.191406 582.054688 72.320312 Z M 582.054688 72.320312 " fill-opacity="1" fill-rule="nonzero"/></g></g></g></g><g clip-path="url(#36720dc907)"><g clip-path="url(#3ed41adfb2)"><path fill="#d9d9d9" d="M 554.765625 56.378906 L 632.601562 56.378906 L 632.601562 135.128906 L 554.765625 135.128906 Z M 554.765625 56.378906 " fill-opacity="1" fill-rule="nonzero"/></g></g><g clip-path="url(#e6a101aea5)"><g clip-path="url(#9b7cff3dfd)"><path stroke-linecap="butt" transform="matrix(0.74912, 0, 0, 0.74912, 554.766038, 56.382747)" fill="none" stroke-linejoin="miter" d="M 51.945838 0.0000876462 C 23.255913 0.0000876462 -0.000551141 23.496416 -0.000551141 52.478351 C -0.000551141 81.465499 23.255913 104.961828 51.945838 104.961828 C 80.635762 104.961828 103.892226 81.465499 103.892226 52.478351 C 103.892226 23.496416 80.635762 0.0000876462 51.945838 0.0000876462 Z M 51.945838 0.0000876462 " stroke="#000000" stroke-width="8" stroke-opacity="1" stroke-miterlimit="4"/></g></g><g fill="#000000" fill-opacity="1"><g transform="translate(582.717566, 83.348342)"><g><path d="M 0.84375 0 L 0.84375 -7.09375 L 4.453125 -7.09375 C 5.265625 -7.09375 5.867188 -6.910156 6.265625 -6.546875 C 6.660156 -6.191406 6.859375 -5.617188 6.859375 -4.828125 L 6.859375 0 Z M 1.921875 -1 L 5.78125 -1 L 5.78125 -4.609375 C 5.78125 -5.171875 5.65625 -5.554688 5.40625 -5.765625 C 5.15625 -5.984375 4.8125 -6.09375 4.375 -6.09375 L 1.921875 -6.09375 Z M 1.921875 -1 "/></g></g></g><g fill="#000000" fill-opacity="1"><g transform="translate(590.532399, 83.348342)"><g><path d="M 1.015625 0 L 1.015625 -7.09375 L 2.09375 -7.09375 L 2.09375 0 Z M 1.015625 0 "/></g></g></g><g fill="#000000" fill-opacity="1"><g transform="translate(593.64874, 83.348342)"><g><path d="M 0.90625 -2.546875 L 0.90625 -7.09375 L 1.984375 -7.09375 L 1.984375 -3.625 L 1.4375 -2.546875 Z M 0.90625 -2.546875 "/></g></g></g><g fill="#000000" fill-opacity="1"><g transform="translate(596.465437, 83.348342)"><g><path d="M 4.265625 0.15625 C 3.628906 0.15625 3.054688 0.015625 2.546875 -0.265625 C 2.046875 -0.546875 1.65625 -0.960938 1.375 -1.515625 C 1.09375 -2.066406 0.953125 -2.753906 0.953125 -3.578125 C 0.953125 -4.023438 0.988281 -4.46875 1.0625 -4.90625 C 1.132812 -5.351562 1.21875 -5.75 1.3125 -6.09375 L 0.421875 -6.09375 L 0.421875 -7.09375 L 4.203125 -7.09375 C 4.941406 -7.09375 5.5625 -6.941406 6.0625 -6.640625 C 6.5625 -6.347656 6.9375 -5.929688 7.1875 -5.390625 C 7.4375 -4.847656 7.5625 -4.21875 7.5625 -3.5 C 7.5625 -2.726562 7.425781 -2.070312 7.15625 -1.53125 C 6.882812 -0.988281 6.5 -0.570312 6 -0.28125 C 5.507812 0.0078125 4.929688 0.15625 4.265625 0.15625 Z M 4.203125 -0.78125 C 4.984375 -0.78125 5.550781 -1.023438 5.90625 -1.515625 C 6.269531 -2.015625 6.453125 -2.679688 6.453125 -3.515625 C 6.453125 -4.171875 6.347656 -4.6875 6.140625 -5.0625 C 5.941406 -5.4375 5.660156 -5.703125 5.296875 -5.859375 C 4.929688 -6.015625 4.503906 -6.09375 4.015625 -6.09375 L 2.390625 -6.09375 C 2.335938 -5.894531 2.269531 -5.585938 2.1875 -5.171875 C 2.101562 -4.753906 2.0625 -4.257812 2.0625 -3.6875 C 2.0625 -2.75 2.226562 -2.03125 2.5625 -1.53125 C 2.894531 -1.03125 3.441406 -0.78125 4.203125 -0.78125 Z M 4.203125 -0.78125 "/></g></g></g><g fill="#000000" fill-opacity="1"><g transform="translate(579.030493, 99.828975)"><g><path d="M 0.421875 0 L 0.421875 -1 L 0.96875 -1 C 1.40625 -1 1.625 -1.363281 1.625 -2.09375 L 1.625 -6.09375 L 0.46875 -6.09375 L 0.46875 -7.09375 L 4.625 -7.09375 C 5.4375 -7.09375 6.039062 -6.910156 6.4375 -6.546875 C 6.832031 -6.191406 7.03125 -5.617188 7.03125 -4.828125 L 7.03125 0 L 5.953125 0 L 5.953125 -4.609375 C 5.953125 -5.171875 5.828125 -5.554688 5.578125 -5.765625 C 5.335938 -5.984375 4.992188 -6.09375 4.546875 -6.09375 L 2.703125 -6.09375 L 2.703125 -2.15625 C 2.703125 -1.4375 2.5625 -0.894531 2.28125 -0.53125 C 2.007812 -0.175781 1.550781 0 0.90625 0 Z M 0.421875 0 "/></g></g></g><g fill="#000000" fill-opacity="1"><g transform="translate(587.025119, 99.828975)"><g><path d="M 3.796875 0 L 3.796875 -6.09375 L 0.125 -6.09375 L 0.125 -7.09375 L 5.96875 -7.09375 L 5.96875 -6.09375 L 4.875 -6.09375 L 4.875 0 Z M 3.796875 0 "/></g></g></g><g fill="#000000" fill-opacity="1"><g transform="translate(593.293761, 99.828975)"><g><path d="M 4.1875 -7.234375 C 5.019531 -7.234375 5.65625 -7.007812 6.09375 -6.5625 C 6.539062 -6.113281 6.765625 -5.53125 6.765625 -4.8125 L 6.765625 0 L 3.65625 0 L 3.65625 -1 L 5.6875 -1 L 5.6875 -4.640625 C 5.6875 -5.128906 5.5625 -5.523438 5.3125 -5.828125 C 5.0625 -6.140625 4.664062 -6.296875 4.125 -6.296875 C 3.488281 -6.296875 3.007812 -6.082031 2.6875 -5.65625 C 2.375 -5.226562 2.175781 -4.648438 2.09375 -3.921875 L 1.671875 0 L 0.59375 0 L 1.140625 -4.90625 L 0.65625 -7.09375 L 1.734375 -7.09375 L 1.9375 -6.09375 L 1.984375 -6.09375 C 2.117188 -6.289062 2.28125 -6.476562 2.46875 -6.65625 C 2.65625 -6.832031 2.882812 -6.972656 3.15625 -7.078125 C 3.4375 -7.179688 3.78125 -7.234375 4.1875 -7.234375 Z M 4.1875 -7.234375 "/></g></g></g><g fill="#000000" fill-opacity="1"><g transform="translate(601.024693, 99.828975)"><g><path d="M 0.296875 0 L 0.296875 -1 L 2.234375 -1 L 0.828125 -7.09375 L 1.90625 -7.09375 L 3.28125 -1.046875 C 3.96875 -1.179688 4.5 -1.5 4.875 -2 C 5.257812 -2.5 5.492188 -3.25 5.578125 -4.25 L 5.84375 -7.09375 L 6.921875 -7.09375 L 6.65625 -4.25 C 6.625 -3.894531 6.566406 -3.519531 6.484375 -3.125 C 6.410156 -2.738281 6.285156 -2.359375 6.109375 -1.984375 C 5.929688 -1.609375 5.6875 -1.269531 5.375 -0.96875 C 5.070312 -0.675781 4.679688 -0.441406 4.203125 -0.265625 C 3.734375 -0.0859375 3.15625 0 2.46875 0 Z M 0.296875 0 "/></g></g></g><g fill="#000000" fill-opacity="1"><g transform="translate(579.674267, 116.309608)"><g><path d="M 5.78125 0 L 5.78125 -4.609375 C 5.78125 -5.171875 5.65625 -5.554688 5.40625 -5.765625 C 5.15625 -5.984375 4.8125 -6.09375 4.375 -6.09375 L 1.015625 -6.09375 L 1.015625 -7.09375 L 4.453125 -7.09375 C 5.265625 -7.09375 5.867188 -6.910156 6.265625 -6.546875 C 6.660156 -6.191406 6.859375 -5.617188 6.859375 -4.828125 L 6.859375 0 Z M 1.015625 0 L 1.015625 -4.25 L 2.09375 -4.25 L 2.09375 0 Z M 1.015625 0 "/></g></g></g><g fill="#000000" fill-opacity="1"><g transform="translate(587.489101, 116.309608)"><g><path d="M 1.1875 0 L 1.1875 -4.1875 C 1.1875 -4.5625 1.238281 -4.875 1.34375 -5.125 C 1.445312 -5.382812 1.566406 -5.585938 1.703125 -5.734375 C 1.847656 -5.878906 1.976562 -5.988281 2.09375 -6.0625 L 2.09375 -6.09375 L 0.296875 -6.09375 L 0.296875 -7.09375 L 3.296875 -7.09375 L 3.296875 -6.1875 C 3.222656 -6.132812 3.101562 -6.039062 2.9375 -5.90625 C 2.769531 -5.769531 2.613281 -5.570312 2.46875 -5.3125 C 2.332031 -5.0625 2.265625 -4.726562 2.265625 -4.3125 L 2.265625 0 Z M 1.1875 0 "/></g></g></g><g fill="#000000" fill-opacity="1"><g transform="translate(591.084877, 116.309608)"><g><path d="M 0.90625 -2.546875 L 0.90625 -7.09375 L 1.984375 -7.09375 L 1.984375 -3.625 L 1.4375 -2.546875 Z M 0.90625 -2.546875 "/></g></g></g><g fill="#000000" fill-opacity="1"><g transform="translate(593.901575, 116.309608)"><g><path d="M 4.453125 0 L 4.453125 -4.609375 C 4.453125 -5.171875 4.328125 -5.554688 4.078125 -5.765625 C 3.835938 -5.984375 3.5 -6.09375 3.0625 -6.09375 L 0.1875 -6.09375 L 0.1875 -7.09375 L 3.125 -7.09375 C 3.9375 -7.09375 4.539062 -6.910156 4.9375 -6.546875 C 5.332031 -6.191406 5.53125 -5.617188 5.53125 -4.828125 L 5.53125 0 Z M 4.453125 0 "/></g></g></g><g fill="#000000" fill-opacity="1"><g transform="translate(600.39795, 116.309608)"><g><path d="M 0.671875 0 L 0.671875 -1.890625 C 0.671875 -2.648438 0.796875 -3.273438 1.046875 -3.765625 C 1.304688 -4.253906 1.664062 -4.617188 2.125 -4.859375 L 0.59375 -7.09375 L 1.875 -7.09375 L 4.546875 -3.125 C 5.128906 -3.476562 5.421875 -4.191406 5.421875 -5.265625 L 5.421875 -7.09375 L 6.5 -7.09375 L 6.5 -5.34375 C 6.5 -4.582031 6.367188 -3.957031 6.109375 -3.46875 C 5.859375 -2.988281 5.503906 -2.628906 5.046875 -2.390625 L 6.65625 0 L 5.390625 0 L 2.625 -4.109375 C 2.039062 -3.753906 1.75 -3.039062 1.75 -1.96875 L 1.75 0 Z M 0.671875 0 "/></g></g></g></svg>